<svg width="22" height="22" viewBox="0 0 22 22" fill="none" xmlns="http://www.w3.org/2000/svg">
<g id="research">
<path id="Ellipse 2128 (Stroke)" fill-rule="evenodd" clip-rule="evenodd" d="M14 9C12.3431 9 11 10.3431 11 12C11 13.6569 12.3431 15 14 15C15.6569 15 17 13.6569 17 12C17 10.3431 15.6569 9 14 9ZM9 12C9 9.23858 11.2386 7 14 7C16.7614 7 19 9.23858 19 12C19 14.7614 16.7614 17 14 17C11.2386 17 9 14.7614 9 12Z" fill="#595959"/>
<path id="Vector 9275 (Stroke)" fill-rule="evenodd" clip-rule="evenodd" d="M17.7072 14.2929L21.7072 18.2929L20.293 19.7071L16.293 15.7071L17.7072 14.2929Z" fill="#595959"/>
<path id="Rectangle 1277 (Stroke)" fill-rule="evenodd" clip-rule="evenodd" d="M5.29289 0.292893C5.48043 0.105357 5.73478 0 6 0H15C15.5523 0 16 0.447715 16 1V8H14V2H6.41421L2 6.41421V20H14V16H16V21C16 21.5523 15.5523 22 15 22H1C0.447715 22 0 21.5523 0 21V6C0 5.73478 0.105357 5.48043 0.292893 5.29289L5.29289 0.292893Z" fill="#595959"/>
<path id="Vector 9276 (Stroke)" fill-rule="evenodd" clip-rule="evenodd" d="M6.38271 0.0761192C6.75639 0.2309 7.00003 0.595536 7.00003 0.999999V6C7.00003 6.55228 6.55231 7 6.00003 7H1.00003C0.595567 7 0.230931 6.75636 0.0761497 6.38268C-0.0786313 6.00901 0.00692445 5.57889 0.292922 5.29289L5.29292 0.292892C5.57892 0.00689393 6.00904 -0.0786618 6.38271 0.0761192ZM3.41424 5H5.00003V3.41421L3.41424 5Z" fill="#595959"/>
</g>
</svg>
